<svg width="24" height="25" viewBox="0 0 24 25" fill="none" xmlns="http://www.w3.org/2000/svg">
<path fill-rule="evenodd" clip-rule="evenodd" d="M19.781 13.0386L15.781 8.03857C15.436 7.60657 14.806 7.53757 14.376 7.88257C13.944 8.22657 13.874 8.85657 14.219 9.28757L16.92 12.6636H8C7.449 12.6636 7 12.2146 7 11.6636V6.66357C7 6.11057 6.552 5.66357 6 5.66357C5.448 5.66357 5 6.11057 5 6.66357V11.6636C5 13.3176 6.346 14.6636 8 14.6636H16.92L14.219 18.0386C13.874 18.4696 13.944 19.0996 14.376 19.4436C14.56 19.5916 14.781 19.6636 15 19.6636C15.293 19.6636 15.584 19.5346 15.781 19.2876L19.781 14.2876C20.073 13.9226 20.073 13.4036 19.781 13.0386Z" fill="url(#paint0_linear_1265_1426)"/>
<defs>
<linearGradient id="paint0_linear_1265_1426" x1="12.5" y1="5.66357" x2="12.5" y2="19.6636" gradientUnits="userSpaceOnUse">
<stop stop-color="#9FFFC7"/>
<stop offset="1" stop-color="#017849"/>
</linearGradient>
</defs>
</svg>
