<svg width="16" height="16" viewBox="0 0 16 16" fill="none" xmlns="http://www.w3.org/2000/svg">
<g clip-path="url(#clip0_6336_1288)">
<path d="M3.33333 12.6666H4.276L10.4853 6.45727L9.54267 5.5146L3.33333 11.7239V12.6666ZM14 13.9999H2V11.1713L10.9567 2.2146C11.0817 2.08962 11.2512 2.01941 11.428 2.01941C11.6048 2.01941 11.7743 2.08962 11.8993 2.2146L13.7853 4.1006C13.9103 4.22562 13.9805 4.39516 13.9805 4.57193C13.9805 4.74871 13.9103 4.91825 13.7853 5.04327L6.162 12.6666H14V13.9999ZM10.4853 4.57193L11.428 5.5146L12.3707 4.57193L11.428 3.62927L10.4853 4.57193Z" fill="#2F80ED"/>
</g>
<defs>
<clipPath id="clip0_6336_1288">
<rect width="16" height="16" fill="white"/>
</clipPath>
</defs>
</svg>
