<svg width="16" height="16" viewBox="0 0 16 16" fill="none" xmlns="http://www.w3.org/2000/svg">
<path fill-rule="evenodd" clip-rule="evenodd" d="M10.6668 10.6667C10.6668 11.0334 10.3668 11.3334 10.0002 11.3334C9.6335 11.3334 9.3335 11.0334 9.3335 10.6667V8.00004C9.3335 7.63337 9.6335 7.33337 10.0002 7.33337C10.3668 7.33337 10.6668 7.63337 10.6668 8.00004V10.6667ZM6.66683 2.88537C6.66683 2.78204 6.8095 2.66671 7.00016 2.66671H9.00016C9.19083 2.66671 9.3335 2.78204 9.3335 2.88537V4.00004H6.66683V2.88537ZM6.66683 10.6667C6.66683 11.0334 6.36683 11.3334 6.00016 11.3334C5.6335 11.3334 5.3335 11.0334 5.3335 10.6667V8.00004C5.3335 7.63337 5.6335 7.33337 6.00016 7.33337C6.36683 7.33337 6.66683 7.63337 6.66683 8.00004V10.6667ZM14.0002 4.00004H13.3335H10.6668V2.88537C10.6668 2.02937 9.9195 1.33337 9.00016 1.33337H7.00016C6.08083 1.33337 5.3335 2.02937 5.3335 2.88537V4.00004H2.66683H2.00016C1.6335 4.00004 1.3335 4.30004 1.3335 4.66671C1.3335 5.03337 1.6335 5.33337 2.00016 5.33337H2.66683V12.6667C2.66683 13.7694 3.56416 14.6667 4.66683 14.6667H11.3335C12.4362 14.6667 13.3335 13.7694 13.3335 12.6667V5.33337H14.0002C14.3668 5.33337 14.6668 5.03337 14.6668 4.66671C14.6668 4.30004 14.3668 4.00004 14.0002 4.00004Z" fill="#EB5757"/>
</svg>
